<svg xmlns="http://www.w3.org/2000/svg" width="1em" height="1em" fill="none" viewBox="0 0 143 51" class="w-[143px] h-[50px] text-text-white cursor-pointer">
    <path fill="white" d="M21.214 6.792c1.457 0 2.45-.795 2.45-2.12 0-.993-.794-1.854-2.118-1.854-1.457 0-2.45.795-2.45 2.12 0 .993.794 1.854 2.118 1.854M39.956 30.301l-.331 2.317 8.874-4.635.331-2.318z"></path>
    <path fill="white" d="M68.234 36.261H42.818l10.052-4.967.464-3.311L39.228 35.4l-.464 3.179h29.007c1.92 0 2.98 1.59 2.649 3.907l-.199 1.457c-.397 2.848-1.788 4.239-4.768 4.239H37.837c-3.377 0-4.106-1.39-3.642-4.57l2.252-15.96h-3.643l-2.252 15.894c-.463 3.312-1.92 4.636-4.635 4.636-2.053 0-3.312-1.39-2.914-4.57l.198-1.655c.331-2.715-.53-4.304-2.847-4.834l-10.199-2.186-.33 2.318 8.277 1.523c1.457.265 1.788.861 1.523 2.715l-.265 2.053c-.463 3.378-1.92 4.636-4.635 4.636H6.049L5.72 50.5h8.74c2.697 0 4.465-.676 5.708-2.263.796 1.587 2.311 2.263 5.22 2.263s4.635-.645 5.884-2.155c.689 1.51 2.301 2.155 5.97 2.155h27.947c5.629 0 8.08-2.053 8.675-6.49l.199-1.457c.53-3.775-1.788-6.291-5.828-6.291M69.426 3.15l-.398 2.317h10.994l.33-2.318z"></path>
    <path fill="white" d="M73.532 21.03h-2.781c-2.715 0-4.04-1.457-3.576-4.57l.198-1.39c.53-3.775-1.788-6.358-5.828-6.358H36.263l9.918-4.9L46.645.5 32.539 7.917l-.464 3.31h29.007c1.92 0 2.914 1.458 2.583 3.776l-.199 1.39c-.463 3.378-1.92 4.636-4.636 4.636H31.082c-3.378 0-4.106-1.39-3.643-4.57l.994-7.02h-3.642l-.994 6.954c-.463 3.312-1.92 4.636-4.635 4.636h-2.914l.53-3.708c.927-6.557-1.523-9.868-6.888-9.868-4.437 0-6.622 1.855-7.218 6.225l-.398 2.98c-.596 4.371 1.39 6.69 7.351 6.69h2.48c-.894 3.456-2.664 4.635-5.857 4.635H.685L.354 30.3h5.894c5.974 0 8.514-2.114 9.602-6.954h3.047c2.634 0 4.381-.644 5.62-2.153.69 1.509 2.302 2.153 5.969 2.153h28.08c2.698 0 4.466-.677 5.71-2.267.817 1.59 2.438 2.267 5.879 2.267h6.622L78.764 9.44h-3.642zM5.917 16.79l.397-2.98c.464-3.377.994-4.04 3.312-4.04 3.046 0 4.304 2.186 3.576 6.888l-.659 4.371H9.891c-3.312 0-4.371-1.324-3.974-4.238"></path>
    <path fill="#D3B25B" d="M135.892.518h-17.874c0-.018-.565-.018-1.553-.018h-16.033a7.514 7.514 0 0 0-7.43 7.5c0 8.166.019 18.1 0 22.048 21.435 9.542 35.902 2.78 49.998-6.823V7.982a7.495 7.495 0 0 0-7.108-7.464m.652 12.297c-2.593.617-17.165 3.319-28.516 9.701-.741.406-4.042 2.54-5.506.159-1.746-2.84 2.469-4.674 4.607-5.524 14.449-5.715 27.134-6.897 29.251-6.509a1.3 1.3 0 0 1 1.146 1.094c.106.705-.423.952-.988 1.076"></path>
    <path fill="#D3B25B" d="M143 29.064V43a7.5 7.5 0 0 1-2.193 5.305 7.5 7.5 0 0 1-5.304 2.194h-35.004a7.493 7.493 0 0 1-7.5-7.499v-6.897c20.609 8.346 34.102 3.757 50.001-7.04"></path>
</svg>