<svg width="473" height="171" viewBox="0 0 473 171" fill="none" xmlns="http://www.w3.org/2000/svg">
<path d="M68.3354 20.5225C73.043 20.5225 76.2529 17.9402 76.2529 13.6358C76.2529 10.4075 73.6853 7.61096 69.4053 7.61096C64.6977 7.61096 61.4878 10.1933 61.4878 14.4977C61.4878 17.726 64.0554 20.5225 68.3354 20.5225Z" fill="white"/>
<path d="M237.383 66.788H228.395C219.623 66.788 215.343 62.0535 216.84 51.9402L217.483 47.4216C219.195 35.1561 211.705 26.7632 198.652 26.7632H116.96L149.007 10.8393L150.505 0.0799561L104.926 24.1809L103.429 34.9402H197.155C203.36 34.9402 206.57 39.6747 205.5 47.2057L204.857 51.7243C203.36 62.6995 198.652 66.788 189.878 66.788H100.219C89.3058 66.788 86.9511 62.2694 88.4488 51.9402L91.6587 29.1296H79.8889L76.6789 51.7243C75.1813 62.4836 70.4737 66.788 61.6991 66.788H52.2839L53.9962 54.7367C56.9915 33.434 49.074 22.673 31.7412 22.673C17.4037 22.673 10.3432 28.6978 8.41621 42.9013L7.13155 52.5845C5.20625 66.7863 11.6245 74.319 30.8842 74.319H38.8947C36.0026 85.5475 30.2875 89.3827 19.9714 89.3827H1.99967L0.929688 96.9137H19.9748C39.2751 96.9137 47.48 90.0406 50.9959 74.319H60.8455C69.3564 74.319 74.997 72.211 78.9998 67.3082C81.2243 72.2212 86.4339 74.319 98.2933 74.319H189.022C197.748 74.319 203.46 72.109 207.479 66.9359C210.116 72.109 215.348 74.319 226.47 74.319H247.868L254.288 29.1296H242.518L237.383 66.788ZM18.9048 53.0163L20.1894 43.3331C21.6871 32.3579 23.3994 30.2057 30.8893 30.2057C40.7321 30.2057 44.7991 37.3066 42.4445 52.5862L40.3163 66.788H31.7446C21.0447 66.788 17.6218 62.4836 18.9048 53.0163Z" fill="white"/>
<path d="M201.005 156.092L199.08 170.08H210.85L212.775 156.092H236.313L237.383 148.561H209.565C204.643 148.561 201.648 151.144 201.005 156.092Z" fill="white"/>
<path d="M224.115 8.68707L222.833 16.2198H258.353L259.423 8.68707H224.115Z" fill="white"/>
<path d="M228.823 125.967H149.649L148.579 133.498H178.062L177.467 138.878C175.755 154.802 168.907 160.397 157.352 160.397H136.809C126.11 160.397 122.472 156.092 123.97 146.195L128.892 111.979H117.122L112.2 146.195C110.06 160.397 116.693 167.929 135.952 167.929H156.28C178.535 167.929 187.094 158.892 189.234 138.878L189.829 133.498H239.521L245.941 88.3083H234.171L228.821 125.967H228.823Z" fill="white"/>
<path d="M448.255 0.139925H387.484C387.484 0.0799536 385.564 0.0799561 382.206 0.0799561H327.692C320.975 0.156156 314.558 2.87458 309.831 7.64674C305.104 12.4189 302.446 18.8608 302.434 25.578C302.434 53.3449 302.494 87.119 302.434 100.543C375.309 132.987 424.496 109.998 472.424 77.3436V25.518C472.407 18.999 469.891 12.7344 465.396 8.0136C460.9 3.29281 454.765 0.474936 448.255 0.139925ZM450.474 41.9503C441.658 44.0493 392.111 53.2349 353.52 74.9347C351.001 76.3141 339.776 83.5707 334.798 75.4745C328.861 65.819 343.194 59.582 350.461 56.6933C399.588 37.2625 442.718 33.2444 449.914 34.5637C450.883 34.6669 451.791 35.0875 452.496 35.7599C453.201 36.4324 453.664 37.3191 453.812 38.282C454.172 40.6809 452.373 41.5205 450.454 41.9403" fill="white"/>
<path d="M472.423 97.1942V144.582C472.427 147.931 471.771 151.247 470.491 154.342C469.212 157.437 467.335 160.249 464.968 162.617C462.6 164.985 459.789 166.864 456.695 168.144C453.6 169.425 450.284 170.083 446.935 170.08H327.921C324.572 170.083 321.255 169.425 318.161 168.144C315.066 166.864 312.254 164.986 309.886 162.618C307.517 160.249 305.639 157.437 304.359 154.343C303.078 151.248 302.421 147.931 302.423 144.582V121.133C372.49 149.51 418.369 133.907 472.423 97.1942Z" fill="white"/>
</svg>
