<svg xmlns="http://www.w3.org/2000/svg" viewBox="0 0 742.24 246.65"><defs><style>.cls-1{fill:#fff;}</style></defs><g id="Layer_2" data-name="Layer 2"><g id="Layer_1-2" data-name="Layer 1"><path class="cls-1" d="M742.2,38.63a51.67,51.67,0,0,0-.43-6.34A37.66,37.66,0,0,0,712.74,1c-2-.41-3.94-.66-5.91-1h-192a7.57,7.57,0,0,1-1,.22,36.3,36.3,0,0,0-20,8,36.91,36.91,0,0,0-14.37,29.75c-.09,16.22,0,32.43,0,48.65q0,25.86,0,51.72a1.52,1.52,0,0,0,1,1.63c1.5.68,2.94,1.5,4.44,2.2,26.68,12.3,54.84,18.83,84,21.23a197.27,197.27,0,0,0,31.13.08,209.43,209.43,0,0,0,31.9-4.91c20.76-4.83,40.4-12.61,59.28-22.39,17.5-9.07,34-19.75,50.05-31.14a2.18,2.18,0,0,0,1-2Q742.2,70.82,742.2,38.63Zm-31.35,9.51a27.67,27.67,0,0,1-6,1.94c-12.11,2.75-24.29,5.17-36.33,8.17-37.57,9.38-73.81,22.31-108,40.79-4.18,2.26-8.53,4.19-12.84,6.2a17.63,17.63,0,0,1-3.69,1.18,23.6,23.6,0,0,1-3.15.27c-1.05-.14-2.42-.23-3.77-.51-8.9-1.8-10.53-12.34-7.33-17.78a22.23,22.23,0,0,1,6.29-6.63A88,88,0,0,1,554.18,72c13.78-5.82,28.05-10.18,42.44-14.18q29.85-8.33,60.28-14.33c11.49-2.27,23-4.29,34.69-5.45a73.84,73.84,0,0,1,15.66-.32,7.35,7.35,0,0,1,5.18,3C714.52,43.44,714,46.62,710.85,48.14Z"/><path class="cls-1" d="M515.94,246.65c-1.23-.17-2.46-.36-3.7-.52a36.81,36.81,0,0,1-25.95-15.74,35.06,35.06,0,0,1-6.67-19.34c-.15-3.9-.18-7.8-.19-11.69,0-10.08,0-20.16,0-30.25V167.7a6,6,0,0,1,.82.33,150.77,150.77,0,0,0,44.86,18.14c7.32,1.74,14.74,3.1,22.19,4.23,6,.91,12.09,1.36,18.16,1.73q9.54.59,19.11.6c5.69,0,11.41-.2,17.09-.65a182.83,182.83,0,0,0,31.4-5.49,299,299,0,0,0,66.75-26.66A292.35,292.35,0,0,0,741.39,133c.21-.16.44-.29.83-.55v1.3c0,24.89,0,49.78,0,74.67a37.61,37.61,0,0,1-29,37c-2,.46-4,.6-6.05.91-.49.07-1,.2-1.47.3Z"/><path class="cls-1" d="M28.08,56.08H0V41H74.4V56.08H46.05v83.25h-18Z"/><path class="cls-1" d="M86.59,108.79c.48,12.87,10.44,18.5,21.94,18.5a53.92,53.92,0,0,0,19.6-3.3l2.66,12.37c-6.08,2.58-14.52,4.51-24.83,4.51-23.06,0-36.57-14.25-36.57-36,0-19.6,11.9-38.16,34.74-38.16,23.09,0,30.61,19,30.61,34.55a38.07,38.07,0,0,1-.63,7.55Zm31.24-12.52C117.91,89.69,115.05,79,103,79,92,79,87.36,89,86.56,96.27Z"/><path class="cls-1" d="M201.35,137.2c-3.71,1.76-11.13,3.67-20,3.67-22.26,0-36.62-14.29-36.62-36.33,0-21.27,14.53-37.8,39.52-37.8A46.52,46.52,0,0,1,201.55,70l-3.19,13.5a30.3,30.3,0,0,0-13.59-2.77c-13.7,0-21.81,10-21.75,23,0,14.57,9.57,22.92,21.81,22.92a35.1,35.1,0,0,0,14.11-2.8Z"/><path class="cls-1" d="M214.75,35.74h18V78h.3a25.73,25.73,0,0,1,21.2-11.3c12.08,0,24.83,8,24.83,30.82v41.82h-18V99.48c0-10.3-3.71-18.14-13.65-18.14-7,0-11.94,4.72-13.91,10.08a15.18,15.18,0,0,0-.79,5.42v42.49h-18Z"/><path class="cls-1" d="M298.21,89.42c0-8.2-.26-15-.58-21.12h15.69L314.2,79h.42c3.15-5.51,10.84-12.27,22.64-12.27,12.38,0,25.25,8,25.25,30.45v42.19h-18V99.25c0-10.19-3.74-18-13.55-18-7.15,0-12.09,5-14,10.54a17.64,17.64,0,0,0-.83,5.69v41.8h-18Z"/><path class="cls-1" d="M449.15,103.12c0,26.11-18.32,37.82-36.49,37.82-20,0-35.55-13.83-35.55-36.6,0-23.3,15.35-37.65,36.76-37.65C435,66.69,449.15,81.59,449.15,103.12Zm-53.57.77c0,13.67,6.82,24,17.66,24,10.3,0,17.45-9.94,17.45-24.24,0-11.16-4.94-23.91-17.34-23.91C400.75,79.74,395.58,92.05,395.58,103.89Z"/><path class="cls-1" d="M.18,170.83a71.05,71.05,0,0,1,12.37-1c6.22,0,10.11.81,13.28,2.95a9.9,9.9,0,0,1,4.78,8.72c0,4.26-2.66,8.16-7.72,10v.18c4.9,1.24,9.39,5.1,9.39,11.49a12.18,12.18,0,0,1-4.44,9.57C24.53,215.6,19.1,217,10.6,217a80.68,80.68,0,0,1-10.42-.61Zm8.41,18.32h4.34c5.88,0,9.15-2.77,9.15-6.69,0-4.36-3.31-6.36-8.64-6.36a23.17,23.17,0,0,0-4.85.37Zm0,21.27a27.08,27.08,0,0,0,4.49.24c5.41,0,10.29-2,10.29-7.76,0-5.39-4.74-7.6-10.56-7.61H8.59Z"/><path class="cls-1" d="M69.5,206.54c0,4,.13,7.31.28,10h-7.4L62,211.51h-.2A12.13,12.13,0,0,1,51,217.33c-6.11,0-11.66-3.66-11.66-14.61V183.07h8.47V201.3c0,5.57,1.76,9.13,6.25,9.13a7,7,0,0,0,6.47-4.52,7.43,7.43,0,0,0,.46-2.62V183.07H69.5Z"/><path class="cls-1" d="M78.28,208.78a18.57,18.57,0,0,0,8.55,2.45c3.73,0,5.39-1.56,5.39-3.76s-1.38-3.42-5.5-4.89c-6.56-2.24-9.29-5.81-9.26-9.78,0-5.89,4.89-10.48,12.71-10.48a19.34,19.34,0,0,1,8.89,2l-1.68,5.94a15.32,15.32,0,0,0-7.09-1.92c-3,0-4.69,1.48-4.69,3.55s1.62,3.14,5.85,4.69c6.1,2.15,8.91,5.26,8.94,10.2,0,6.11-4.76,10.52-13.61,10.52A21.62,21.62,0,0,1,76.58,215Z"/><path class="cls-1" d="M116.52,173.7a4.5,4.5,0,0,1-4.83,4.57,4.45,4.45,0,0,1-4.64-4.57,4.74,4.74,0,0,1,9.47,0Zm-9,42.88V183.07H116v33.51Z"/><path class="cls-1" d="M125.16,193c0-3.87-.12-7.06-.27-10h7.4l.42,5h.19a12.19,12.19,0,0,1,10.68-5.78c5.84,0,11.91,3.76,11.91,14.36v19.9H147V197.67c0-4.8-1.76-8.47-6.39-8.47a7,7,0,0,0-6.59,5,8.38,8.38,0,0,0-.39,2.69v19.72h-8.48Z"/><path class="cls-1" d="M170.49,202.17c.22,6.07,4.92,8.72,10.34,8.72a25.53,25.53,0,0,0,9.25-1.55l1.25,5.83a30.23,30.23,0,0,1-11.71,2.13c-10.87,0-17.24-6.72-17.24-17,0-9.24,5.6-18,16.38-18s14.44,9,14.44,16.29a17.84,17.84,0,0,1-.3,3.56Zm14.73-5.91c0-3.1-1.31-8.16-7-8.16-5.21,0-7.38,4.74-7.76,8.16Z"/><path class="cls-1" d="M199.62,208.78a18.57,18.57,0,0,0,8.55,2.45c3.73,0,5.39-1.56,5.39-3.76s-1.38-3.42-5.5-4.89c-6.56-2.24-9.29-5.81-9.26-9.78,0-5.89,4.9-10.48,12.71-10.48a19.28,19.28,0,0,1,8.89,2l-1.68,5.94a15.32,15.32,0,0,0-7.08-1.92c-3,0-4.7,1.48-4.7,3.55s1.62,3.14,5.85,4.69c6.1,2.15,8.91,5.26,8.94,10.2,0,6.11-4.76,10.52-13.6,10.52A21.66,21.66,0,0,1,197.92,215Z"/><path class="cls-1" d="M226.65,208.78a18.57,18.57,0,0,0,8.55,2.45c3.73,0,5.39-1.56,5.39-3.76s-1.38-3.42-5.5-4.89c-6.56-2.24-9.29-5.81-9.26-9.78,0-5.89,4.9-10.48,12.71-10.48a19.31,19.31,0,0,1,8.89,2l-1.68,5.94a15.32,15.32,0,0,0-7.09-1.92c-3,0-4.69,1.48-4.69,3.55s1.62,3.14,5.85,4.69c6.1,2.15,8.91,5.26,8.94,10.2,0,6.11-4.76,10.52-13.6,10.52A21.63,21.63,0,0,1,225,215Z"/></g></g></svg>